<svg xmlns="http://www.w3.org/2000/svg" width="106.687" height="62.142" viewBox="0 0 106.687 62.142">
  <g id="Group_1339" data-name="Group 1339" transform="translate(-87.673 -98.894)">
    <g id="Group_1334" data-name="Group 1334" transform="translate(151.325 98.894)">
      <path id="Path_345" data-name="Path 345" d="M485.383,140.971a17.519,17.519,0,0,1,1.992-7.207,14.087,14.087,0,0,1,5.362-5.863h-5.688s-3.356,11.459-1.666,13.07" transform="translate(-449.876 -120.695)" fill="#ffa800"/>
      <path id="Path_346" data-name="Path 346" d="M485.083,130.433a28.982,28.982,0,0,1,2.158-9.866c2.232-5.1,5.37-6.521,5.37-6.521l-5.37-.167s-4.24,14.569-2.158,16.553" transform="translate(-449.575 -110.157)" fill="#5f3f91"/>
      <path id="Path_347" data-name="Path 347" d="M347.623,98.894c-4,5.7-3.725,17.631-3.725,17.631h5.022a59.3,59.3,0,0,1,1.365-12.277.948.948,0,0,1,.91-.762l22.875-.06a.531.531,0,0,1,.51.6l-1.5,13.533s6.359,1.743,6.359,5.639l.052-5.639h.009c-.141-14.532,6.171-18.67,6.171-18.67Z" transform="translate(-343.894 -98.894)" fill="#ffa800"/>
      <path id="Path_348" data-name="Path 348" d="M373.442,290.516c0,.38,0,.868-.006,1.415a.835.835,0,0,1-.835.832h-22.1a.835.835,0,0,1-.835-.835v-1.406a.835.835,0,0,0-.835-.835H344.73a.835.835,0,0,0-.835.835v5.794a.908.908,0,0,0,0,.094c.808,7.937,7.617,8.021,7.617,8.021h20.2c7.457,0,7.729-8.125,7.729-8.125v-5.784a.835.835,0,0,0-.835-.835h-4.335A.834.834,0,0,0,373.442,290.516Z" transform="translate(-343.895 -242.288)" fill="#ffa800"/>
      <path id="Path_349" data-name="Path 349" d="M425.531,338.379h-.176" transform="translate(-405.118 -278.884)" fill="#fff"/>
    </g>
    <g id="Group_1338" data-name="Group 1338" transform="translate(87.673 110.084)">
      <g id="Group_1337" data-name="Group 1337" transform="translate(0 0)">
        <g id="Group_1336" data-name="Group 1336">
          <g id="Group_1335" data-name="Group 1335">
            <path id="Path_350" data-name="Path 350" d="M110.135,172.317h0a14.958,14.958,0,0,0-5.866-1,17.6,17.6,0,0,0-3.562.438,16.473,16.473,0,0,1-2.96.438c-1.3,0-1.959-.393-1.959-1.171,0-.453.44-.885,1.319-1.308a7.681,7.681,0,0,1,1.525-.629l1.165.174a19.1,19.1,0,0,0,2.05.145,10.852,10.852,0,0,0,7.348-2.588.024.024,0,0,0,.008-.018l0-.393a16.339,16.339,0,0,1,3.755-9.818l.032-.032a11.457,11.457,0,0,0-1.721-5.457l3.385-2.556-4.925-4.606-2.79,3.349a13.607,13.607,0,0,0-6.861-1.587,12.568,12.568,0,0,0-8.826,3.3,10.86,10.86,0,0,0-3.584,8.344,11.211,11.211,0,0,0,5.21,9.89h0a7.592,7.592,0,0,0-2.852,2.2,4.8,4.8,0,0,0-1.219,3.05q0,5.434,7.344,5.432a32.489,32.489,0,0,0,3.557-.294,31.615,31.615,0,0,1,3.559-.293q4.411,0,4.411,2.788a2.887,2.887,0,0,1-1.99,2.582,11.984,11.984,0,0,1-5.071.937,11.841,11.841,0,0,1-8.31-3.519l-4.5,5.72a20.607,20.607,0,0,0,12.671,4.251,17.925,17.925,0,0,0,10.019-2.711,8.47,8.47,0,0,0,4.156-7.466,12.064,12.064,0,0,0-.122-1.736c-.168-.11-.334-.223-.495-.342A10.918,10.918,0,0,1,110.135,172.317ZM96.467,153.3a5.312,5.312,0,0,1,3.986-1.588,4.862,4.862,0,0,1,3.8,1.645,5.816,5.816,0,0,1,1.47,4.019,6.868,6.868,0,0,1-1.37,4.519,4.78,4.78,0,0,1-3.9,1.644,5.089,5.089,0,0,1-4.025-1.691,6.474,6.474,0,0,1-1.5-4.472A5.607,5.607,0,0,1,96.467,153.3Z" transform="translate(-87.673 -143.936)" fill="#5f3f91"/>
          </g>
        </g>
      </g>
    </g>
    <path id="Path_351" data-name="Path 351" d="M254.318,181.675a8.88,8.88,0,0,0-6.674-2.455,11.346,11.346,0,0,0-4.026.756A7.748,7.748,0,0,0,240.482,182q-2.595-2.783-7.7-2.78a8.319,8.319,0,0,0-6.445,2.731l-1.22-2.251H221v7.525a11.593,11.593,0,0,0-2.505-4.46q-3.233-3.549-9.079-3.546a11.579,11.579,0,0,0-8.951,3.69,13.571,13.571,0,0,0-3.39,9.561,15.622,15.622,0,0,0,1.634,7.39,8.644,8.644,0,0,1-4.849,1.425q-7.689,0-7.692-8.07a9.212,9.212,0,0,1,1.975-6.266,6.775,6.775,0,0,1,5.381-2.265,10.156,10.156,0,0,1,2.235.23l3.164-4.326a13.171,13.171,0,0,0-4.969-.915q-6.5,0-10.256,3.74a15.624,15.624,0,0,0-3.755,9.527c-.045,8.161,4.834,11.089,4.834,11.089a13.362,13.362,0,0,0,7.98,2.266,21.74,21.74,0,0,0,4.612-.431,15.291,15.291,0,0,0,4.564-2.059l-.11-.23a12.208,12.208,0,0,0,7.592,2.265,11.583,11.583,0,0,0,9.019-3.62A11.9,11.9,0,0,0,221,197.676v7.685h5.99V186.91a5.7,5.7,0,0,1,1.926-1.845,4.76,4.76,0,0,1,5.766.274,3.966,3.966,0,0,1,1.175,3.01v17.011h5.99V186.84a4.559,4.559,0,0,1,1.745-1.819,4.745,4.745,0,0,1,2.591-.791q4.528,0,4.531,5.056v16.075H256.7v-16.94a9.275,9.275,0,0,0-2.384-6.746m-44.658,18.8c-4.365,0-6.574-3.625-6.574-7.505,0-3.826,2.26-7.551,6.574-7.551,4.026,0,6.58,3.724,6.58,7.551,0,3.88-2.21,7.505-6.58,7.505" transform="translate(-69.348 -60.371)" fill="#5f3f91"/>
  </g>
</svg>
